<svg xmlns="http://www.w3.org/2000/svg" width="159" height="25" viewBox="0 0 159 25" fill="none">
  <path d="M21.7471 0.0561523H15.2231V15.8224H21.7471V0.0561523Z" fill="#FFFFFF" style="fill:#FFFFFF;fill:color(display-p3 1 1 1);fill-opacity:1;"/>
  <path d="M6.52441 0.0561523H0.000451088V9.0266L6.52441 15.8224V0.0561523Z" fill="#FFFFFF" style="fill:#FFFFFF;fill:color(display-p3 1 1 1);fill-opacity:1;"/>
  <path d="M6.52441 15.8223H0.000451088V24.5209H6.52441V15.8223Z" fill="#FFFFFF" style="fill:#FFFFFF;fill:color(display-p3 1 1 1);fill-opacity:1;"/>
  <path d="M15.2236 15.8223H6.52501L11.6898 22.3462H15.2236V15.8223Z" fill="#FFFFFF" style="fill:#FFFFFF;fill:color(display-p3 1 1 1);fill-opacity:1;"/>
  <mask id="path-5-outside-1_3189_68554" maskUnits="userSpaceOnUse" x="27.2354" y="-0.432373" width="132" height="23" fill="black">
    <rect fill="white" x="27.2354" y="-0.432373" width="132" height="23"/>
    <path d="M28.2354 0.567627H44.4698V2.96828H37.6579V21.5734H35.0472V2.96828H28.2354V0.567627Z"/>
    <path d="M43.6589 13.9213C43.6589 12.3608 43.9589 10.9905 44.5591 9.81015C45.1793 8.62983 46.0395 7.71958 47.1398 7.0794C48.2401 6.41922 49.5004 6.08913 50.9208 6.08913C52.3212 6.08913 53.5616 6.37921 54.6418 6.95937C55.7221 7.53953 56.5724 8.37976 57.1925 9.48006C57.8127 10.5804 58.1428 11.8707 58.1828 13.3511C58.1828 13.5712 58.1628 13.9213 58.1228 14.4014H46.2396V14.6115C46.2796 16.1119 46.7397 17.3122 47.6199 18.2124C48.5002 19.1127 49.6505 19.5628 51.0709 19.5628C52.1712 19.5628 53.1014 19.2927 53.8616 18.7526C54.6418 18.1924 55.162 17.4222 55.4221 16.442H57.9127C57.6127 18.0024 56.8625 19.2827 55.6621 20.283C54.4618 21.2633 52.9914 21.7534 51.2509 21.7534C49.7305 21.7534 48.4001 21.4333 47.2598 20.7931C46.1195 20.133 45.2293 19.2127 44.5891 18.0324C43.9689 16.8321 43.6589 15.4617 43.6589 13.9213ZM55.6321 12.3608C55.5121 11.0605 55.022 10.0502 54.1617 9.33002C53.3215 8.60982 52.2512 8.24972 50.9508 8.24972C49.7905 8.24972 48.7702 8.62983 47.89 9.39003C47.0098 10.1502 46.5096 11.1405 46.3896 12.3608H55.6321Z"/>
    <path d="M62.8526 16.532C62.8926 17.4522 63.2927 18.2024 64.0529 18.7826C64.8331 19.3628 65.8334 19.6528 67.0537 19.6528C68.134 19.6528 69.0043 19.4428 69.6645 19.0227C70.3446 18.5825 70.6847 18.0124 70.6847 17.3122C70.6847 16.712 70.5247 16.2519 70.2046 15.9318C69.8845 15.6117 69.4644 15.3917 68.9443 15.2716C68.4441 15.1516 67.7239 15.0316 66.7837 14.9115C65.4633 14.7515 64.383 14.5414 63.5428 14.2814C62.7026 14.0213 62.0224 13.6112 61.5022 13.051C60.9821 12.4709 60.722 11.6807 60.722 10.6804C60.722 9.78014 60.9721 8.97992 61.4722 8.27973C61.9924 7.57954 62.6926 7.03939 63.5728 6.65929C64.453 6.25918 65.4433 6.05912 66.5436 6.05912C68.3441 6.05912 69.8045 6.47924 70.9248 7.31947C72.0651 8.1597 72.6953 9.36003 72.8153 10.9205H70.3546C70.2546 10.1202 69.8645 9.46005 69.1843 8.93991C68.5041 8.41977 67.6539 8.1597 66.6336 8.1597C65.5933 8.1597 64.7531 8.37976 64.1129 8.81988C63.4728 9.23999 63.1527 9.80015 63.1527 10.5003C63.1527 11.0205 63.3027 11.4206 63.6028 11.7007C63.9029 11.9807 64.283 12.1708 64.7431 12.2708C65.2232 12.3708 65.9434 12.4809 66.9037 12.6009C68.2441 12.761 69.3444 12.981 70.2046 13.2611C71.0849 13.5412 71.785 13.9913 72.3052 14.6115C72.8453 15.2316 73.1154 16.0719 73.1154 17.1321C73.1154 18.0524 72.8453 18.8626 72.3052 19.5628C71.765 20.263 71.0348 20.8031 70.1146 21.1833C69.1943 21.5634 68.1741 21.7534 67.0537 21.7534C65.0532 21.7534 63.4428 21.2933 62.2224 20.373C61.0221 19.4528 60.4119 18.1724 60.3919 16.532H62.8526Z"/>
    <path d="M76.9271 8.5198H74.1664V6.26918H76.9271V1.97801H79.3878V6.26918H83.2589V8.5198H79.3878V17.5523C79.3878 18.1924 79.5078 18.6526 79.7479 18.9326C80.008 19.1927 80.4481 19.3227 81.0683 19.3227H83.739V21.5734H80.9182C79.4778 21.5734 78.4476 21.2533 77.8274 20.6131C77.2272 19.9729 76.9271 18.9626 76.9271 17.5823V8.5198Z"/>
    <path d="M85.8497 0.567627H89.1506L96.5926 18.0024L103.945 0.567627H107.185V21.5734H104.635V5.00884L97.6729 21.5734H95.3622L88.4003 5.00884V21.5734H85.8497V0.567627Z"/>
    <path d="M124.07 6.26918V21.5734H121.94L121.61 19.5328C120.449 21.0132 118.819 21.7534 116.718 21.7534C114.898 21.7534 113.438 21.1933 112.337 20.0729C111.237 18.9526 110.687 17.1922 110.687 14.7915V6.26918H113.147V14.6415C113.147 16.2219 113.488 17.4322 114.168 18.2725C114.868 19.0927 115.858 19.5028 117.139 19.5028C118.539 19.5028 119.629 19.0027 120.409 18.0024C121.21 17.0021 121.61 15.6417 121.61 13.9213V6.26918H124.07Z"/>
    <path d="M133.928 21.5734L141.94 0.567627H145.031L153.013 21.5734H150.223L148.002 15.9018H138.849L136.629 21.5734H133.928ZM139.63 13.5312H147.222L143.411 3.41841L139.63 13.5312Z"/>
    <path d="M155.39 0.567627H158.001V21.5734H155.39V0.567627Z"/>
  </mask>
  <path d="M28.2354 0.567627H44.4698V2.96828H37.6579V21.5734H35.0472V2.96828H28.2354V0.567627Z" fill="#FFFFFF" style="fill:#FFFFFF;fill:color(display-p3 1 1 1);fill-opacity:1;"/>
  <path d="M43.6589 13.9213C43.6589 12.3608 43.9589 10.9905 44.5591 9.81015C45.1793 8.62983 46.0395 7.71958 47.1398 7.0794C48.2401 6.41922 49.5004 6.08913 50.9208 6.08913C52.3212 6.08913 53.5616 6.37921 54.6418 6.95937C55.7221 7.53953 56.5724 8.37976 57.1925 9.48006C57.8127 10.5804 58.1428 11.8707 58.1828 13.3511C58.1828 13.5712 58.1628 13.9213 58.1228 14.4014H46.2396V14.6115C46.2796 16.1119 46.7397 17.3122 47.6199 18.2124C48.5002 19.1127 49.6505 19.5628 51.0709 19.5628C52.1712 19.5628 53.1014 19.2927 53.8616 18.7526C54.6418 18.1924 55.162 17.4222 55.4221 16.442H57.9127C57.6127 18.0024 56.8625 19.2827 55.6621 20.283C54.4618 21.2633 52.9914 21.7534 51.2509 21.7534C49.7305 21.7534 48.4001 21.4333 47.2598 20.7931C46.1195 20.133 45.2293 19.2127 44.5891 18.0324C43.9689 16.8321 43.6589 15.4617 43.6589 13.9213ZM55.6321 12.3608C55.5121 11.0605 55.022 10.0502 54.1617 9.33002C53.3215 8.60982 52.2512 8.24972 50.9508 8.24972C49.7905 8.24972 48.7702 8.62983 47.89 9.39003C47.0098 10.1502 46.5096 11.1405 46.3896 12.3608H55.6321Z" fill="#FFFFFF" style="fill:#FFFFFF;fill:color(display-p3 1 1 1);fill-opacity:1;"/>
  <path d="M62.8526 16.532C62.8926 17.4522 63.2927 18.2024 64.0529 18.7826C64.8331 19.3628 65.8334 19.6528 67.0537 19.6528C68.134 19.6528 69.0043 19.4428 69.6645 19.0227C70.3446 18.5825 70.6847 18.0124 70.6847 17.3122C70.6847 16.712 70.5247 16.2519 70.2046 15.9318C69.8845 15.6117 69.4644 15.3917 68.9443 15.2716C68.4441 15.1516 67.7239 15.0316 66.7837 14.9115C65.4633 14.7515 64.383 14.5414 63.5428 14.2814C62.7026 14.0213 62.0224 13.6112 61.5022 13.051C60.9821 12.4709 60.722 11.6807 60.722 10.6804C60.722 9.78014 60.9721 8.97992 61.4722 8.27973C61.9924 7.57954 62.6926 7.03939 63.5728 6.65929C64.453 6.25918 65.4433 6.05912 66.5436 6.05912C68.3441 6.05912 69.8045 6.47924 70.9248 7.31947C72.0651 8.1597 72.6953 9.36003 72.8153 10.9205H70.3546C70.2546 10.1202 69.8645 9.46005 69.1843 8.93991C68.5041 8.41977 67.6539 8.1597 66.6336 8.1597C65.5933 8.1597 64.7531 8.37976 64.1129 8.81988C63.4728 9.23999 63.1527 9.80015 63.1527 10.5003C63.1527 11.0205 63.3027 11.4206 63.6028 11.7007C63.9029 11.9807 64.283 12.1708 64.7431 12.2708C65.2232 12.3708 65.9434 12.4809 66.9037 12.6009C68.2441 12.761 69.3444 12.981 70.2046 13.2611C71.0849 13.5412 71.785 13.9913 72.3052 14.6115C72.8453 15.2316 73.1154 16.0719 73.1154 17.1321C73.1154 18.0524 72.8453 18.8626 72.3052 19.5628C71.765 20.263 71.0348 20.8031 70.1146 21.1833C69.1943 21.5634 68.1741 21.7534 67.0537 21.7534C65.0532 21.7534 63.4428 21.2933 62.2224 20.373C61.0221 19.4528 60.4119 18.1724 60.3919 16.532H62.8526Z" fill="#FFFFFF" style="fill:#FFFFFF;fill:color(display-p3 1 1 1);fill-opacity:1;"/>
  <path d="M76.9271 8.5198H74.1664V6.26918H76.9271V1.97801H79.3878V6.26918H83.2589V8.5198H79.3878V17.5523C79.3878 18.1924 79.5078 18.6526 79.7479 18.9326C80.008 19.1927 80.4481 19.3227 81.0683 19.3227H83.739V21.5734H80.9182C79.4778 21.5734 78.4476 21.2533 77.8274 20.6131C77.2272 19.9729 76.9271 18.9626 76.9271 17.5823V8.5198Z" fill="#FFFFFF" style="fill:#FFFFFF;fill:color(display-p3 1 1 1);fill-opacity:1;"/>
  <path d="M85.8497 0.567627H89.1506L96.5926 18.0024L103.945 0.567627H107.185V21.5734H104.635V5.00884L97.6729 21.5734H95.3622L88.4003 5.00884V21.5734H85.8497V0.567627Z" fill="#FFFFFF" style="fill:#FFFFFF;fill:color(display-p3 1 1 1);fill-opacity:1;"/>
  <path d="M124.07 6.26918V21.5734H121.94L121.61 19.5328C120.449 21.0132 118.819 21.7534 116.718 21.7534C114.898 21.7534 113.438 21.1933 112.337 20.0729C111.237 18.9526 110.687 17.1922 110.687 14.7915V6.26918H113.147V14.6415C113.147 16.2219 113.488 17.4322 114.168 18.2725C114.868 19.0927 115.858 19.5028 117.139 19.5028C118.539 19.5028 119.629 19.0027 120.409 18.0024C121.21 17.0021 121.61 15.6417 121.61 13.9213V6.26918H124.07Z" fill="#FFFFFF" style="fill:#FFFFFF;fill:color(display-p3 1 1 1);fill-opacity:1;"/>
  <path d="M133.928 21.5734L141.94 0.567627H145.031L153.013 21.5734H150.223L148.002 15.9018H138.849L136.629 21.5734H133.928ZM139.63 13.5312H147.222L143.411 3.41841L139.63 13.5312Z" fill="#FFFFFF" style="fill:#FFFFFF;fill:color(display-p3 1 1 1);fill-opacity:1;"/>
  <path d="M155.39 0.567627H158.001V21.5734H155.39V0.567627Z" fill="#FFFFFF" style="fill:#FFFFFF;fill:color(display-p3 1 1 1);fill-opacity:1;"/>
  <path d="M28.2354 0.567627H44.4698V2.96828H37.6579V21.5734H35.0472V2.96828H28.2354V0.567627Z" stroke="#FFFFFF" style="stroke:#FFFFFF;stroke:color(display-p3 1 1 1);stroke-opacity:1;" stroke-width="0" mask="url(#path-5-outside-1_3189_68554)"/>
  <path d="M43.6589 13.9213C43.6589 12.3608 43.9589 10.9905 44.5591 9.81015C45.1793 8.62983 46.0395 7.71958 47.1398 7.0794C48.2401 6.41922 49.5004 6.08913 50.9208 6.08913C52.3212 6.08913 53.5616 6.37921 54.6418 6.95937C55.7221 7.53953 56.5724 8.37976 57.1925 9.48006C57.8127 10.5804 58.1428 11.8707 58.1828 13.3511C58.1828 13.5712 58.1628 13.9213 58.1228 14.4014H46.2396V14.6115C46.2796 16.1119 46.7397 17.3122 47.6199 18.2124C48.5002 19.1127 49.6505 19.5628 51.0709 19.5628C52.1712 19.5628 53.1014 19.2927 53.8616 18.7526C54.6418 18.1924 55.162 17.4222 55.4221 16.442H57.9127C57.6127 18.0024 56.8625 19.2827 55.6621 20.283C54.4618 21.2633 52.9914 21.7534 51.2509 21.7534C49.7305 21.7534 48.4001 21.4333 47.2598 20.7931C46.1195 20.133 45.2293 19.2127 44.5891 18.0324C43.9689 16.8321 43.6589 15.4617 43.6589 13.9213ZM55.6321 12.3608C55.5121 11.0605 55.022 10.0502 54.1617 9.33002C53.3215 8.60982 52.2512 8.24972 50.9508 8.24972C49.7905 8.24972 48.7702 8.62983 47.89 9.39003C47.0098 10.1502 46.5096 11.1405 46.3896 12.3608H55.6321Z" stroke="#FFFFFF" style="stroke:#FFFFFF;stroke:color(display-p3 1 1 1);stroke-opacity:1;" stroke-width="0" mask="url(#path-5-outside-1_3189_68554)"/>
  <path d="M62.8526 16.532C62.8926 17.4522 63.2927 18.2024 64.0529 18.7826C64.8331 19.3628 65.8334 19.6528 67.0537 19.6528C68.134 19.6528 69.0043 19.4428 69.6645 19.0227C70.3446 18.5825 70.6847 18.0124 70.6847 17.3122C70.6847 16.712 70.5247 16.2519 70.2046 15.9318C69.8845 15.6117 69.4644 15.3917 68.9443 15.2716C68.4441 15.1516 67.7239 15.0316 66.7837 14.9115C65.4633 14.7515 64.383 14.5414 63.5428 14.2814C62.7026 14.0213 62.0224 13.6112 61.5022 13.051C60.9821 12.4709 60.722 11.6807 60.722 10.6804C60.722 9.78014 60.9721 8.97992 61.4722 8.27973C61.9924 7.57954 62.6926 7.03939 63.5728 6.65929C64.453 6.25918 65.4433 6.05912 66.5436 6.05912C68.3441 6.05912 69.8045 6.47924 70.9248 7.31947C72.0651 8.1597 72.6953 9.36003 72.8153 10.9205H70.3546C70.2546 10.1202 69.8645 9.46005 69.1843 8.93991C68.5041 8.41977 67.6539 8.1597 66.6336 8.1597C65.5933 8.1597 64.7531 8.37976 64.1129 8.81988C63.4728 9.23999 63.1527 9.80015 63.1527 10.5003C63.1527 11.0205 63.3027 11.4206 63.6028 11.7007C63.9029 11.9807 64.283 12.1708 64.7431 12.2708C65.2232 12.3708 65.9434 12.4809 66.9037 12.6009C68.2441 12.761 69.3444 12.981 70.2046 13.2611C71.0849 13.5412 71.785 13.9913 72.3052 14.6115C72.8453 15.2316 73.1154 16.0719 73.1154 17.1321C73.1154 18.0524 72.8453 18.8626 72.3052 19.5628C71.765 20.263 71.0348 20.8031 70.1146 21.1833C69.1943 21.5634 68.1741 21.7534 67.0537 21.7534C65.0532 21.7534 63.4428 21.2933 62.2224 20.373C61.0221 19.4528 60.4119 18.1724 60.3919 16.532H62.8526Z" stroke="#FFFFFF" style="stroke:#FFFFFF;stroke:color(display-p3 1 1 1);stroke-opacity:1;" stroke-width="0" mask="url(#path-5-outside-1_3189_68554)"/>
  <path d="M76.9271 8.5198H74.1664V6.26918H76.9271V1.97801H79.3878V6.26918H83.2589V8.5198H79.3878V17.5523C79.3878 18.1924 79.5078 18.6526 79.7479 18.9326C80.008 19.1927 80.4481 19.3227 81.0683 19.3227H83.739V21.5734H80.9182C79.4778 21.5734 78.4476 21.2533 77.8274 20.6131C77.2272 19.9729 76.9271 18.9626 76.9271 17.5823V8.5198Z" stroke="#FFFFFF" style="stroke:#FFFFFF;stroke:color(display-p3 1 1 1);stroke-opacity:1;" stroke-width="0" mask="url(#path-5-outside-1_3189_68554)"/>
  <path d="M85.8497 0.567627H89.1506L96.5926 18.0024L103.945 0.567627H107.185V21.5734H104.635V5.00884L97.6729 21.5734H95.3622L88.4003 5.00884V21.5734H85.8497V0.567627Z" stroke="#FFFFFF" style="stroke:#FFFFFF;stroke:color(display-p3 1 1 1);stroke-opacity:1;" stroke-width="0" mask="url(#path-5-outside-1_3189_68554)"/>
  <path d="M124.07 6.26918V21.5734H121.94L121.61 19.5328C120.449 21.0132 118.819 21.7534 116.718 21.7534C114.898 21.7534 113.438 21.1933 112.337 20.0729C111.237 18.9526 110.687 17.1922 110.687 14.7915V6.26918H113.147V14.6415C113.147 16.2219 113.488 17.4322 114.168 18.2725C114.868 19.0927 115.858 19.5028 117.139 19.5028C118.539 19.5028 119.629 19.0027 120.409 18.0024C121.21 17.0021 121.61 15.6417 121.61 13.9213V6.26918H124.07Z" stroke="#FFFFFF" style="stroke:#FFFFFF;stroke:color(display-p3 1 1 1);stroke-opacity:1;" stroke-width="0" mask="url(#path-5-outside-1_3189_68554)"/>
  <path d="M133.928 21.5734L141.94 0.567627H145.031L153.013 21.5734H150.223L148.002 15.9018H138.849L136.629 21.5734H133.928ZM139.63 13.5312H147.222L143.411 3.41841L139.63 13.5312Z" stroke="#FFFFFF" style="stroke:#FFFFFF;stroke:color(display-p3 1 1 1);stroke-opacity:1;" stroke-width="0" mask="url(#path-5-outside-1_3189_68554)"/>
  <path d="M155.39 0.567627H158.001V21.5734H155.39V0.567627Z" stroke="#FFFFFF" style="stroke:#FFFFFF;stroke:color(display-p3 1 1 1);stroke-opacity:1;" stroke-width="0" mask="url(#path-5-outside-1_3189_68554)"/>
</svg>
